<svg xmlns="http://www.w3.org/2000/svg" viewBox="0 0 1600 900" role="img" aria-labelledby="t d"><title id="t">Three key-area handover prototypes</title><desc id="d">Named entrances, accessible exits, staffed handover points, separated public and logistics flows, isolation and emergency-stop boundaries.</desc><rect width="1600" height="900" rx="28" fill="#eef3f2"/><text x="64" y="72" font-family="Arial,sans-serif" font-size="40" font-weight="700" fill="#17324d">THREE KEY-AREA HANDOVER PROTOTYPES</text><text x="64" y="112" font-family="Arial,sans-serif" font-size="20" fill="#526c78">Directional concept diagrams inside provisional task frames — not parcel, road or approval geometry</text><g transform="translate(55 158)"><rect width="480" height="650" rx="24" fill="#fff" stroke="#b8c9cf" stroke-width="3"/><rect width="480" height="78" rx="24" fill="#31c6d4"/><rect y="52" width="480" height="26" fill="#31c6d4"/><text x="24" y="48" font-family="Arial,sans-serif" font-size="21" font-weight="700" fill="#071523">ZHONGZHIYUAN TEST YARD</text><path d="M42 170h390v330H42z" fill="#f7f9f8" stroke="#17324d" stroke-width="4" stroke-dasharray="14 10"/><circle cx="82" cy="335" r="24" fill="#31c6d4"/><text x="82" y="342" text-anchor="middle" font-family="Arial" font-size="18" font-weight="700" fill="#071523">IN</text><circle cx="392" cy="335" r="24" fill="#7ad7a8"/><text x="392" y="342" text-anchor="middle" font-family="Arial" font-size="16" font-weight="700" fill="#071523">OUT</text><rect x="176" y="230" width="132" height="78" rx="12" fill="#ffe7d9" stroke="#e36c4d" stroke-width="4"/><text x="242" y="260" text-anchor="middle" font-family="Arial" font-size="15" font-weight="700" fill="#17324d">STAFFED</text><text x="242" y="282" text-anchor="middle" font-family="Arial" font-size="15" fill="#17324d">HANDOVER</text><path d="M108 335h62M314 335h52" stroke="#31c6d4" stroke-width="12" stroke-linecap="round"/><path d="M242 320v150" stroke="#e36c4d" stroke-width="8" stroke-dasharray="12 10"/><rect x="65" y="420" width="110" height="52" rx="10" fill="#dcecef"/><text x="120" y="452" text-anchor="middle" font-family="Arial" font-size="14" fill="#17324d">PUBLIC</text><rect x="307" y="420" width="110" height="52" rx="10" fill="#fff0be"/><text x="362" y="452" text-anchor="middle" font-family="Arial" font-size="14" fill="#17324d">LOGISTICS</text><rect x="42" y="520" width="390" height="54" rx="12" fill="#071523"/><text x="237" y="553" text-anchor="middle" font-family="Arial" font-size="16" fill="#fff">ISOLATION / EMERGENCY STOP</text><text x="28" y="615" font-family="Arial" font-size="16" fill="#526c78">S01–S04 · controlled industry tests</text></g><g transform="translate(570 158)"><rect width="480" height="650" rx="24" fill="#fff" stroke="#b8c9cf" stroke-width="3"/><rect width="480" height="78" rx="24" fill="#7ad7a8"/><rect y="52" width="480" height="26" fill="#7ad7a8"/><text x="24" y="48" font-family="Arial,sans-serif" font-size="21" font-weight="700" fill="#071523">AI ORIGIN CARE STATION</text><path d="M42 170h390v330H42z" fill="#f7f9f8" stroke="#17324d" stroke-width="4" stroke-dasharray="14 10"/><circle cx="82" cy="335" r="24" fill="#31c6d4"/><text x="82" y="342" text-anchor="middle" font-family="Arial" font-size="18" font-weight="700" fill="#071523">IN</text><circle cx="392" cy="335" r="24" fill="#7ad7a8"/><text x="392" y="342" text-anchor="middle" font-family="Arial" font-size="16" font-weight="700" fill="#071523">OUT</text><rect x="176" y="230" width="132" height="78" rx="12" fill="#ffe7d9" stroke="#e36c4d" stroke-width="4"/><text x="242" y="260" text-anchor="middle" font-family="Arial" font-size="15" font-weight="700" fill="#17324d">STAFFED</text><text x="242" y="282" text-anchor="middle" font-family="Arial" font-size="15" fill="#17324d">HANDOVER</text><path d="M108 335h62M314 335h52" stroke="#31c6d4" stroke-width="12" stroke-linecap="round"/><path d="M242 320v150" stroke="#e36c4d" stroke-width="8" stroke-dasharray="12 10"/><rect x="65" y="420" width="110" height="52" rx="10" fill="#dcecef"/><text x="120" y="452" text-anchor="middle" font-family="Arial" font-size="14" fill="#17324d">PUBLIC</text><rect x="307" y="420" width="110" height="52" rx="10" fill="#fff0be"/><text x="362" y="452" text-anchor="middle" font-family="Arial" font-size="14" fill="#17324d">LOGISTICS</text><rect x="42" y="520" width="390" height="54" rx="12" fill="#071523"/><text x="237" y="553" text-anchor="middle" font-family="Arial" font-size="16" fill="#fff">ISOLATION / EMERGENCY STOP</text><text x="28" y="615" font-family="Arial" font-size="16" fill="#526c78">S05–S08 · public care and access</text></g><g transform="translate(1085 158)"><rect width="480" height="650" rx="24" fill="#fff" stroke="#b8c9cf" stroke-width="3"/><rect width="480" height="78" rx="24" fill="#f2c94c"/><rect y="52" width="480" height="26" fill="#f2c94c"/><text x="24" y="48" font-family="Arial,sans-serif" font-size="19" font-weight="700" fill="#071523">DAZHONGSI CONTINUITY DEPOT</text><path d="M42 170h390v330H42z" fill="#f7f9f8" stroke="#17324d" stroke-width="4" stroke-dasharray="14 10"/><circle cx="82" cy="335" r="24" fill="#31c6d4"/><text x="82" y="342" text-anchor="middle" font-family="Arial" font-size="18" font-weight="700" fill="#071523">IN</text><circle cx="392" cy="335" r="24" fill="#7ad7a8"/><text x="392" y="342" text-anchor="middle" font-family="Arial" font-size="16" font-weight="700" fill="#071523">OUT</text><rect x="176" y="230" width="132" height="78" rx="12" fill="#ffe7d9" stroke="#e36c4d" stroke-width="4"/><text x="242" y="260" text-anchor="middle" font-family="Arial" font-size="15" font-weight="700" fill="#17324d">STAFFED</text><text x="242" y="282" text-anchor="middle" font-family="Arial" font-size="15" fill="#17324d">HANDOVER</text><path d="M108 335h62M314 335h52" stroke="#31c6d4" stroke-width="12" stroke-linecap="round"/><path d="M242 320v150" stroke="#e36c4d" stroke-width="8" stroke-dasharray="12 10"/><rect x="65" y="420" width="110" height="52" rx="10" fill="#dcecef"/><text x="120" y="452" text-anchor="middle" font-family="Arial" font-size="14" fill="#17324d">PUBLIC</text><rect x="307" y="420" width="110" height="52" rx="10" fill="#fff0be"/><text x="362" y="452" text-anchor="middle" font-family="Arial" font-size="14" fill="#17324d">LOGISTICS</text><rect x="42" y="520" width="390" height="54" rx="12" fill="#071523"/><text x="237" y="553" text-anchor="middle" font-family="Arial" font-size="16" fill="#fff">ISOLATION / EMERGENCY STOP</text><text x="28" y="615" font-family="Arial" font-size="16" fill="#526c78">S09–S12 · logistics and business</text></g><rect x="64" y="836" width="1472" height="34" rx="17" fill="#17324d"/><text x="800" y="860" text-anchor="middle" font-family="Arial" font-size="18" fill="#fff">ACCESSIBLE EXIT · VISIBLE HUMAN TAKEOVER · SEPARATED FLOWS · STOP BEFORE EXPANSION</text></svg>